<?xml version="1.0" encoding="UTF-8"?>
<svg id="Calque_1" data-name="Calque 1" xmlns="http://www.w3.org/2000/svg" viewBox="0 0 500 500">
  <defs>
    <style>
      .cls-1 {
        fill: #c4872c;
      }
    </style>
  </defs>
  <path class="cls-1" d="M242.89,285.2v2.53c0,3.51-.64,6.59-1.91,9.24-.7,1.44-1.58,2.75-2.65,3.93-.65.72-1.36,1.39-2.15,2.02-4.47,3.54-10.34,5.32-17.6,5.32h-31.39v-43.55h31.39c7.43,0,13.33,1.77,17.72,5.31.16.13.31.26.46.39,1.22,1.04,2.25,2.21,3.1,3.5,2.02,3.07,3.03,6.84,3.03,11.31ZM442.6,119.91v260.18c0,34.52-27.99,62.51-62.51,62.51H119.91c-34.52,0-62.51-27.99-62.51-62.51V119.91c0-34.52,27.99-62.51,62.51-62.51h260.18c34.52,0,62.51,27.99,62.51,62.51ZM369.53,288.77c0-10.08-2.45-18.25-7.34-24.51-4.9-6.25-11.44-11.21-19.62-14.87-8.19-3.66-17.43-6.54-27.73-8.65l-13.16-3.18c-7.77-1.78-14.44-3.86-20.01-6.21-2.38-1.01-4.54-2.15-6.47-3.42-1.06-.7-2.06-1.44-2.98-2.22-1.3-1.09-2.45-2.26-3.46-3.51-3.04-3.73-4.56-8.61-4.56-14.63,0-7.81,2.62-14.1,7.84-18.86.86-.78,1.8-1.53,2.8-2.23.05-.03.1-.07.16-.1,7.06-4.89,16.38-7.33,27.94-7.33,8.1,0,15.32,1.22,21.65,3.66,6.33,2.43,11.31,6.17,14.94,11.21,3.63,5.04,5.44,11.71,5.44,19.99v10.24h21.02v-10.24c0-11.7-2.75-21.41-8.23-29.13-5.49-7.72-13-13.57-22.54-17.56-9.53-3.98-20.3-5.98-32.28-5.98s-22.24,1.88-31.27,5.62c-2.97,1.23-5.72,2.63-8.25,4.22-1.08.67-2.13,1.38-3.13,2.12-3.78,2.79-6.99,6.04-9.63,9.75-4.98,6.99-7.47,15.28-7.47,24.87s2.23,17.43,6.71,23.53c2.61,3.56,5.81,6.72,9.6,9.47,1.05.76,2.13,1.49,3.26,2.18,1.81,1.11,3.72,2.14,5.75,3.1,7.93,3.74,17.04,6.91,27.34,9.51l13.17,3.17c7.93,1.79,14.85,3.86,20.76,6.22,5.91,2.35,10.51,5.4,13.8,9.14,3.29,3.74,4.94,8.78,4.94,15.12,0,9.1-3.63,16.66-10.89,22.67-7.26,6.02-17.81,9.02-31.65,9.02-11.97,0-22.01-2.71-30.14-8.14-1.03-.69-2.04-1.42-3.01-2.2.49-1.16.92-2.35,1.3-3.57,1.45-4.64,2.18-9.73,2.18-15.26v-2.54c0-8.43-1.56-15.27-4.68-20.5-3.13-5.23-6.88-9.25-11.27-12.03-4.39-2.78-8.44-4.68-12.15-5.7v-4.55c2.57-.82,5.26-2.03,8.04-3.63-3.63-2.79-6.75-5.95-9.33-9.46-2.72-3.71-4.7-8.01-5.91-12.87-1.03,3.38-2.98,6.21-5.85,8.49-4.47,3.54-10.16,5.31-17.09,5.31h-30.88v-42.54h30.88c7.1,0,12.83,1.74,17.22,5.2,1.94,1.52,3.44,3.33,4.52,5.42.81-8.04,3.43-15.23,7.84-21.42,2.67-3.74,5.91-7.07,9.67-9.97-2.29-1.56-4.78-2.95-7.47-4.16-8.02-3.63-17.43-5.45-28.23-5.45h-91.15v29.37h23.29v118.5h-23.29v29.37h92.16c10.64,0,19.96-1.86,27.98-5.57,2.76-1.27,5.31-2.75,7.65-4.41,1.02-.72,1.99-1.47,2.92-2.26,1.03.72,2.08,1.42,3.16,2.07,2.27,1.38,4.67,2.62,7.21,3.72,10.12,4.39,21.6,6.59,34.43,6.59s24.01-2.08,33.55-6.22c9.53-4.15,16.92-9.96,22.15-17.44,5.23-7.47,7.85-16.25,7.85-26.33Z"/>
</svg>